<svg width="18" height="33" viewBox="0 0 18 33" fill="none" xmlns="http://www.w3.org/2000/svg">
<path d="M14.1263 10.0801C13.9628 9.39895 13.5896 8.87485 13.0911 8.47352C12.6494 8.1184 12.2959 7.68407 12.0573 7.13093C11.5918 6.05369 10.6265 5.48471 9.58737 5.69593C8.93858 5.82663 8.41902 6.20551 8.0788 6.84842C7.71089 7.54282 7.26517 8.15141 6.69418 8.65307C6.43836 8.91577 6.22209 9.20225 6.06253 9.53888C5.84099 10.0102 5.73418 10.5079 5.82781 11.0439C5.95836 11.7963 6.37374 12.2861 6.97506 12.5792C7.70693 12.9369 8.46122 12.9317 9.20891 12.6571C9.74562 12.4591 10.2612 12.463 10.7979 12.661C11.51 12.9224 12.2287 12.9224 12.9395 12.6241C13.8995 12.2201 14.3913 11.1851 14.1263 10.0815V10.0801ZM11.9228 11.3554C11.4573 11.5508 10.9865 11.5508 10.521 11.3805C10.1689 11.2511 9.83133 11.2485 9.48056 11.3779C8.99133 11.5587 8.49814 11.5614 8.01814 11.3277C7.62517 11.1363 7.35352 10.8155 7.26781 10.3231C7.20715 9.97321 7.27572 9.64714 7.42078 9.33822C7.52495 9.11644 7.66605 8.9303 7.83352 8.75736C8.20671 8.42864 8.49814 8.02995 8.73946 7.57582C8.96232 7.15602 9.30254 6.90783 9.72715 6.82202C10.4076 6.68472 11.0392 7.05568 11.3439 7.76196C11.4995 8.12369 11.7316 8.40752 12.0203 8.64118C12.3474 8.90389 12.5913 9.24713 12.6981 9.69334C12.8722 10.4155 12.5505 11.0927 11.9214 11.358L11.9228 11.3554Z" fill="#E75F13"/>
<path d="M7.07658 5.15863C6.59394 4.68733 6.37504 4.08139 6.31438 3.38699C6.22998 2.42328 6.60976 1.65627 7.12801 0.952632C7.38251 0.608073 7.67921 0.318961 8.04185 0.13282C8.33988 -0.0203173 8.64186 -0.070483 8.93328 0.153942C9.12449 0.301799 9.22339 0.527544 9.30647 0.762531C9.46076 1.19686 9.51746 1.65627 9.55043 2.11832C9.57548 2.46156 9.58999 2.80744 9.57944 3.15332C9.56098 3.80547 9.4001 4.39822 9.03087 4.91044C8.52845 5.60616 7.69899 5.71837 7.07526 5.15863H7.07658Z" fill="#E75F13"/>
<path d="M10.4393 2.31106C10.4696 1.69059 10.525 1.0886 10.7795 0.539417C11.0142 0.0338003 11.4098 -0.121977 11.8766 0.0958472C12.325 0.305751 12.6678 0.666151 12.9672 1.0886C13.3087 1.57045 13.5856 2.09851 13.6608 2.71898C13.7716 3.6246 13.5922 4.45366 12.9817 5.08733C12.3711 5.72232 11.5615 5.65499 11.0036 4.95795C10.6713 4.54211 10.4986 4.04045 10.4393 3.48599C10.3984 3.09919 10.405 2.71238 10.4393 2.31106Z" fill="#E75F13"/>
<path d="M13.0384 6.26623C13.2837 5.48866 13.6147 4.78502 14.1488 4.22396C14.2371 4.13023 14.3386 4.05498 14.4507 3.99821C14.7857 3.82659 15.1061 3.89392 15.3646 4.19491C15.6507 4.52759 15.8011 4.94212 15.8986 5.38173C16.0041 5.8583 16.0345 6.34147 15.9553 6.82861C15.8301 7.59826 15.267 8.55932 14.3571 8.71642C13.8811 8.79827 13.3734 8.57517 13.107 7.92565C12.8868 7.38835 12.892 6.83653 13.0384 6.26623Z" fill="#E75F13"/>
<path d="M4.08188 7.02003C3.89594 6.06688 4.02386 5.18502 4.49463 4.37973C4.66605 4.08798 4.90342 3.89128 5.23177 3.90316C5.45331 3.91108 5.64847 4.02065 5.8054 4.18699C6.46738 4.89063 6.89727 5.74609 7.04628 6.76524C7.09771 7.12036 7.05683 7.4834 6.93023 7.824C6.62957 8.63589 5.92408 8.94877 5.22122 8.57253C4.63572 8.25833 4.27836 7.72235 4.08188 7.02003Z" fill="#E75F13"/>
<path d="M9.79575 30.0421C9.76871 29.8662 9.73395 29.6941 9.70498 29.5201C9.70498 29.5143 9.70112 29.5104 9.69918 29.5046C9.6818 29.4737 9.66635 29.4389 9.65669 29.3983C9.64704 29.3538 9.64317 29.3229 9.64124 29.2958C9.63545 29.2764 9.62772 29.2532 9.61614 29.2204C9.60455 29.1759 9.59103 29.1314 9.57944 29.087C9.56013 29.0038 9.55626 28.9168 9.53888 28.8337C9.53695 28.8221 9.53309 28.8105 9.53116 28.7969C9.43459 28.7351 9.38051 28.6036 9.36699 28.4857C9.3245 28.1202 9.24725 27.8302 9.15068 27.4744C9.13716 27.4222 9.12558 27.3681 9.11399 27.314C9.04832 27.2366 9.0039 27.138 9.00776 27.0317C9.00004 27.0123 8.99231 26.993 8.98652 26.9737C8.96527 26.9273 8.95176 26.8789 8.94789 26.8267C8.93437 26.7958 8.93244 26.761 8.92665 26.7281C8.91699 26.7049 8.90927 26.6798 8.89961 26.6566C8.89575 26.6662 8.89188 26.674 8.88802 26.6836L6.04316 14.7618C5.44638 12.3275 4.85152 10.4172 3.76804 9L0 10.6995C0.596784 11.8693 1.08348 13.2556 1.65323 15.3515L6.39466 32.6349H10.1878C10.211 32.5924 10.2322 32.5518 10.2554 32.5112C10.2361 32.3836 10.2187 32.2559 10.1994 32.1283C10.0951 31.4265 9.90584 30.7459 9.79575 30.044V30.0421Z" fill="#E75F13"/>
<path d="M10.7517 31.3477C10.0815 28.8109 10.1993 26.0634 10.8058 23.49C11.4122 20.9165 12.4918 18.4997 13.724 16.2065C14.7418 14.3117 15.9103 12.357 15.9431 10.1683C17.7122 13.4861 17.5771 17.734 16.3507 21.3709C15.1243 25.0078 12.9245 28.1497 10.7478 31.3477H10.7517Z" fill="#E75F13"/>
<path d="M10.0506 27.1501C9.54073 24.0913 10.0912 20.7889 11.5377 18.2212C12.3528 16.775 13.4266 15.5724 14.2744 14.1532C15.1223 12.734 15.75 10.9687 15.4738 9.24408C15.3637 11.1428 14.2571 12.7166 13.1021 13.9869C11.9472 15.2572 10.6532 16.4347 9.93473 18.1207C9.36691 19.4548 9.21241 21.0074 9.29545 22.5097C9.3785 24.0101 9.68945 25.4776 10.0525 27.1501H10.0506Z" fill="#E75F13"/>
</svg>
