<svg width="150" height="22" viewBox="0 0 150 22" fill="none" xmlns="http://www.w3.org/2000/svg">
<path d="M10.0489 2.92705C10.3483 2.00574 11.6517 2.00574 11.9511 2.92705L13.2451 6.90983C13.379 7.32185 13.763 7.60081 14.1962 7.60081H18.3839C19.3527 7.60081 19.7554 8.84043 18.9717 9.40983L15.5838 11.8713C15.2333 12.126 15.0866 12.5773 15.2205 12.9894L16.5146 16.9721C16.8139 17.8934 15.7595 18.6596 14.9757 18.0902L11.5878 15.6287C11.2373 15.374 10.7627 15.374 10.4122 15.6287L7.02426 18.0902C6.24054 18.6596 5.18607 17.8934 5.48542 16.9721L6.7795 12.9894C6.91338 12.5773 6.76672 12.126 6.41623 11.8713L3.02827 9.40983C2.24456 8.84043 2.64734 7.60081 3.61606 7.60081H7.8038C8.23703 7.60081 8.62099 7.32185 8.75486 6.90983L10.0489 2.92705Z" fill="#E75F13"/>
<path d="M42.0489 2.92705C42.3483 2.00574 43.6517 2.00574 43.9511 2.92705L45.2451 6.90983C45.379 7.32185 45.763 7.60081 46.1962 7.60081H50.3839C51.3527 7.60081 51.7554 8.84043 50.9717 9.40983L47.5838 11.8713C47.2333 12.126 47.0866 12.5773 47.2205 12.9894L48.5146 16.9721C48.8139 17.8934 47.7595 18.6596 46.9757 18.0902L43.5878 15.6287C43.2373 15.374 42.7627 15.374 42.4122 15.6287L39.0243 18.0902C38.2405 18.6596 37.1861 17.8934 37.4854 16.9721L38.7795 12.9894C38.9134 12.5773 38.7667 12.126 38.4162 11.8713L35.0283 9.40983C34.2446 8.84043 34.6473 7.60081 35.6161 7.60081H39.8038C40.237 7.60081 40.621 7.32185 40.7549 6.90983L42.0489 2.92705Z" fill="#E75F13"/>
<path d="M74.0489 2.92705C74.3483 2.00574 75.6517 2.00574 75.9511 2.92705L77.2451 6.90983C77.379 7.32185 77.763 7.60081 78.1962 7.60081H82.3839C83.3527 7.60081 83.7554 8.84043 82.9717 9.40983L79.5838 11.8713C79.2333 12.126 79.0866 12.5773 79.2205 12.9894L80.5146 16.9721C80.8139 17.8934 79.7595 18.6596 78.9757 18.0902L75.5878 15.6287C75.2373 15.374 74.7627 15.374 74.4122 15.6287L71.0243 18.0902C70.2405 18.6596 69.1861 17.8934 69.4854 16.9721L70.7795 12.9894C70.9134 12.5773 70.7667 12.126 70.4162 11.8713L67.0283 9.40983C66.2446 8.84043 66.6473 7.60081 67.6161 7.60081H71.8038C72.237 7.60081 72.621 7.32185 72.7549 6.90983L74.0489 2.92705Z" fill="#E75F13"/>
<path d="M106.049 2.92705C106.348 2.00574 107.652 2.00574 107.951 2.92705L109.245 6.90983C109.379 7.32185 109.763 7.60081 110.196 7.60081H114.384C115.353 7.60081 115.755 8.84043 114.972 9.40983L111.584 11.8713C111.233 12.126 111.087 12.5773 111.22 12.9894L112.515 16.9721C112.814 17.8934 111.759 18.6596 110.976 18.0902L107.588 15.6287C107.237 15.374 106.763 15.374 106.412 15.6287L103.024 18.0902C102.241 18.6596 101.186 17.8934 101.485 16.9721L102.78 12.9894C102.913 12.5773 102.767 12.126 102.416 11.8713L99.0283 9.40983C98.2446 8.84043 98.6473 7.60081 99.6161 7.60081H103.804C104.237 7.60081 104.621 7.32185 104.755 6.90983L106.049 2.92705Z" fill="#E75F13"/>
<path d="M138.049 2.92705C138.348 2.00574 139.652 2.00574 139.951 2.92705L141.245 6.90983C141.379 7.32185 141.763 7.60081 142.196 7.60081H146.384C147.353 7.60081 147.755 8.84043 146.972 9.40983L143.584 11.8713C143.233 12.126 143.087 12.5773 143.22 12.9894L144.515 16.9721C144.814 17.8934 143.759 18.6596 142.976 18.0902L139.588 15.6287C139.237 15.374 138.763 15.374 138.412 15.6287L135.024 18.0902C134.241 18.6596 133.186 17.8934 133.485 16.9721L134.78 12.9894C134.913 12.5773 134.767 12.126 134.416 11.8713L131.028 9.40983C130.245 8.84043 130.647 7.60081 131.616 7.60081H135.804C136.237 7.60081 136.621 7.32185 136.755 6.90983L138.049 2.92705Z" fill="#E75F13"/>
</svg>
